<?xml version="1.0" encoding="UTF-8" standalone="no"?>
<!-- Generator: Adobe Illustrator 16.0.0, SVG Export Plug-In . SVG Version: 6.00 Build 0)  -->

<svg
   xmlns:dc="http://purl.org/dc/elements/1.1/"
   xmlns:cc="http://creativecommons.org/ns#"
   xmlns:rdf="http://www.w3.org/1999/02/22-rdf-syntax-ns#"
   xmlns:svg="http://www.w3.org/2000/svg"
   xmlns="http://www.w3.org/2000/svg"
   xmlns:sodipodi="http://sodipodi.sourceforge.net/DTD/sodipodi-0.dtd"
   xmlns:inkscape="http://www.inkscape.org/namespaces/inkscape"
   version="1.1"
   id="Capa_1"
   x="0px"
   y="0px"
   width="97.713px"
   height="97.713px"
   viewBox="0 0 97.713 97.713"
   style="enable-background:new 0 0 97.713 97.713;"
   xml:space="preserve"
   sodipodi:docname="bakery_icon_hover.svg"
   inkscape:version="0.92.4 (5da689c313, 2019-01-14)"><metadata
   id="metadata3887"><rdf:RDF><cc:Work
       rdf:about=""><dc:format>image/svg+xml</dc:format><dc:type
         rdf:resource="http://purl.org/dc/dcmitype/StillImage" /><dc:title /></cc:Work></rdf:RDF></metadata><defs
   id="defs3885" /><sodipodi:namedview
   pagecolor="#ffffff"
   bordercolor="#666666"
   borderopacity="1"
   objecttolerance="10"
   gridtolerance="10"
   guidetolerance="10"
   inkscape:pageopacity="0"
   inkscape:pageshadow="2"
   inkscape:window-width="2160"
   inkscape:window-height="1346"
   id="namedview3883"
   showgrid="false"
   inkscape:zoom="2.4152365"
   inkscape:cx="181.3487"
   inkscape:cy="29.32564"
   inkscape:window-x="-11"
   inkscape:window-y="-11"
   inkscape:window-maximized="1"
   inkscape:current-layer="Capa_1" />
<g
   id="g3850"
   style="fill:#338000">
	<path
   d="M48.855,0C29.021,0,12.883,16.138,12.883,35.974c0,5.174,1.059,10.114,3.146,14.684   c8.994,19.681,26.238,40.46,31.31,46.359c0.38,0.441,0.934,0.695,1.517,0.695s1.137-0.254,1.517-0.695   c5.07-5.898,22.314-26.676,31.311-46.359c2.088-4.57,3.146-9.51,3.146-14.684C84.828,16.138,68.69,0,48.855,0z M48.855,54.659   c-10.303,0-18.686-8.383-18.686-18.686c0-10.304,8.383-18.687,18.686-18.687s18.686,8.383,18.686,18.687   C67.542,46.276,59.159,54.659,48.855,54.659z"
   id="path3848"
   style="fill:#338000" />
</g>
<g
   id="g3852">
</g>
<g
   id="g3854">
</g>
<g
   id="g3856">
</g>
<g
   id="g3858">
</g>
<g
   id="g3860">
</g>
<g
   id="g3862">
</g>
<g
   id="g3864">
</g>
<g
   id="g3866">
</g>
<g
   id="g3868">
</g>
<g
   id="g3870">
</g>
<g
   id="g3872">
</g>
<g
   id="g3874">
</g>
<g
   id="g3876">
</g>
<g
   id="g3878">
</g>
<g
   id="g3880">
</g>
<circle
   style="fill:#ffffff;stroke-width:1.08447313"
   id="path4027"
   cx="48.615944"
   cy="35.433792"
   r="27.5" /><g
   transform="matrix(0.6730039,0,0,0.76370805,27.527393,8.4048148)"
   id="Bread"
   style="fill:#338000"><path
     inkscape:connector-curvature="0"
     d="M 13.42,21.81 C 7.48,25.39 4,30.58 4,36 4,45.25 13.84,47 32,47 50.16,47 60,45.25 60,36 60,30.03 55.84,24.42 48.81,20.82 l -0.97,3.64 A 4.0073058,4.0073058 0 0 1 40.1,22.38 l 1.16,-4.31 a 38.384,38.384 0 0 0 -4.91,-0.84 l -2.55,9.53 a 4.0060111,4.0060111 0 1 1 -7.74,-2.07 l 2.02,-7.5 a 38.116,38.116 0 0 0 -5.39,0.89 l -1.9,7.13 a 4.0011811,4.0011811 0 0 1 -7.73,-2.07 z"
     id="path4227"
     style="fill:#338000" /><path
     inkscape:connector-curvature="0"
     d="m 16.41,26.1 a 1.987,1.987 0 0 0 2.44,-1.41 l 1.02,-3.81 a 33.175,33.175 0 0 0 -4.65,1.94 L 15,23.66 a 1.975,1.975 0 0 0 1.41,2.44 z"
     id="path4229"
     style="fill:#338000" /><path
     inkscape:connector-curvature="0"
     d="m 43.45,25.35 a 1.974,1.974 0 0 0 1.52,-0.2 1.927,1.927 0 0 0 0.93,-1.21 l 0.58,-2.16 a 34.488,34.488 0 0 0 -3.79,-1.31 l -0.65,2.43 a 1.969,1.969 0 0 0 0.2,1.52 1.927,1.927 0 0 0 1.21,0.93 z"
     id="path4231"
     style="fill:#338000" /><path
     inkscape:connector-curvature="0"
     d="m 28.2,26.73 a 1.927,1.927 0 0 0 1.21,0.93 2.007,2.007 0 0 0 2.45,-1.42 l 1.93,-7.2 a 41.1,41.1 0 0 0 -4.15,0.03 L 28,25.21 a 1.969,1.969 0 0 0 0.2,1.52 z"
     id="path4233"
     style="fill:#338000" /></g></svg>