<?xml version="1.0" encoding="UTF-8" standalone="no"?>
<!-- Generator: Adobe Illustrator 16.0.0, SVG Export Plug-In . SVG Version: 6.00 Build 0)  -->

<svg
   xmlns:dc="http://purl.org/dc/elements/1.1/"
   xmlns:cc="http://creativecommons.org/ns#"
   xmlns:rdf="http://www.w3.org/1999/02/22-rdf-syntax-ns#"
   xmlns:svg="http://www.w3.org/2000/svg"
   xmlns="http://www.w3.org/2000/svg"
   xmlns:sodipodi="http://sodipodi.sourceforge.net/DTD/sodipodi-0.dtd"
   xmlns:inkscape="http://www.inkscape.org/namespaces/inkscape"
   version="1.1"
   id="Capa_1"
   x="0px"
   y="0px"
   width="97.713px"
   height="97.713px"
   viewBox="0 0 97.713 97.713"
   style="enable-background:new 0 0 97.713 97.713;"
   xml:space="preserve"
   sodipodi:docname="butchery_icon.svg"
   inkscape:version="0.92.4 (5da689c313, 2019-01-14)"><metadata
   id="metadata3887"><rdf:RDF><cc:Work
       rdf:about=""><dc:format>image/svg+xml</dc:format><dc:type
         rdf:resource="http://purl.org/dc/dcmitype/StillImage" /><dc:title></dc:title></cc:Work></rdf:RDF></metadata><defs
   id="defs3885" /><sodipodi:namedview
   pagecolor="#ffffff"
   bordercolor="#666666"
   borderopacity="1"
   objecttolerance="10"
   gridtolerance="10"
   guidetolerance="10"
   inkscape:pageopacity="0"
   inkscape:pageshadow="2"
   inkscape:window-width="2160"
   inkscape:window-height="1346"
   id="namedview3883"
   showgrid="false"
   inkscape:zoom="2.4152365"
   inkscape:cx="48.856499"
   inkscape:cy="-119.72809"
   inkscape:window-x="-11"
   inkscape:window-y="-11"
   inkscape:window-maximized="1"
   inkscape:current-layer="Capa_1" />
<g
   id="g3850">
	<path
   d="M48.855,0C29.021,0,12.883,16.138,12.883,35.974c0,5.174,1.059,10.114,3.146,14.684   c8.994,19.681,26.238,40.46,31.31,46.359c0.38,0.441,0.934,0.695,1.517,0.695s1.137-0.254,1.517-0.695   c5.07-5.898,22.314-26.676,31.311-46.359c2.088-4.57,3.146-9.51,3.146-14.684C84.828,16.138,68.69,0,48.855,0z M48.855,54.659   c-10.303,0-18.686-8.383-18.686-18.686c0-10.304,8.383-18.687,18.686-18.687s18.686,8.383,18.686,18.687   C67.542,46.276,59.159,54.659,48.855,54.659z"
   id="path3848" />
</g>
<g
   id="g3852">
</g>
<g
   id="g3854">
</g>
<g
   id="g3856">
</g>
<g
   id="g3858">
</g>
<g
   id="g3860">
</g>
<g
   id="g3862">
</g>
<g
   id="g3864">
</g>
<g
   id="g3866">
</g>
<g
   id="g3868">
</g>
<g
   id="g3870">
</g>
<g
   id="g3872">
</g>
<g
   id="g3874">
</g>
<g
   id="g3876">
</g>
<g
   id="g3878">
</g>
<g
   id="g3880">
</g>
<circle
   style="fill:#ffffff;stroke-width:1.08447313"
   id="path4027"
   cx="48.615944"
   cy="35.433792"
   r="27.5" /><g
   transform="matrix(0.11538556,0,0,0.09178231,26.000143,16.523088)"
   id="g3942"><g
     id="g3940"><path
       inkscape:connector-curvature="0"
       d="m 374.828,277.584 -169.696,-169.712 -96.08,96.08 c 17.792,30.448 55.76,78.576 90.416,113.232 23.472,23.472 48.416,44.08 74.144,61.616 l -11.488,11.488 c -25.68,-17.728 -50.544,-38.352 -73.968,-61.792 -29.568,-29.568 -68.8,-75.6 -90.864,-112.784 L 80.46,232.544 c 19.792,33.936 57.904,80.128 90.72,112.928 32.8,32.8 67.68,59.6 101.616,79.408 L 374.828,322.848 c 12.512,-12.512 12.512,-32.768 0,-45.264 z m -33.936,33.936 c -6.256,6.256 -16.384,6.256 -22.624,0 -6.256,-6.256 -6.256,-16.384 0,-22.624 6.256,-6.256 16.384,-6.256 22.624,0 6.256,6.256 6.256,16.384 0,22.624 z"
       id="path3938" /></g></g><g
   transform="matrix(0.11538556,0,0,0.09178231,26.000143,16.523088)"
   id="g3948"><g
     id="g3946"><path
       inkscape:connector-curvature="0"
       d="m 108.956,11.712 c -15.616,-15.616 -40.944,-15.616 -56.576,0 -15.616,15.616 -15.616,40.944 0,56.576 9.232,9.216 21.84,12.848 33.824,11.184 l 62.352,62.352 45.248,-45.248 z M 89.164,48.336 c -4.688,4.688 -12.288,4.688 -16.976,0 -4.688,-4.688 -4.688,-12.288 0,-16.976 4.688,-4.688 12.288,-4.688 16.976,0 4.688,4.688 4.688,12.288 0,16.976 z"
       id="path3944" /></g></g></svg>