<?xml version="1.0" encoding="UTF-8" standalone="no"?>
<svg
   xmlns:dc="http://purl.org/dc/elements/1.1/"
   xmlns:cc="http://creativecommons.org/ns#"
   xmlns:rdf="http://www.w3.org/1999/02/22-rdf-syntax-ns#"
   xmlns:svg="http://www.w3.org/2000/svg"
   xmlns="http://www.w3.org/2000/svg"
   xmlns:sodipodi="http://sodipodi.sourceforge.net/DTD/sodipodi-0.dtd"
   xmlns:inkscape="http://www.inkscape.org/namespaces/inkscape"
   id="f0b4e0b4-8ccd-46fa-8baa-3b2354185db9"
   data-name="Layer 1"
   width="888"
   height="423.67869"
   viewBox="0 0 888 423.67869"
   version="1.1"
   sodipodi:docname="desde-ventana.svg"
   inkscape:version="0.92.4 (5da689c313, 2019-01-14)">
  <metadata
     id="metadata1169">
    <rdf:RDF>
      <cc:Work
         rdf:about="">
        <dc:format>image/svg+xml</dc:format>
        <dc:type
           rdf:resource="http://purl.org/dc/dcmitype/StillImage" />
        <dc:title></dc:title>
      </cc:Work>
    </rdf:RDF>
  </metadata>
  <defs
     id="defs1167" />
  <sodipodi:namedview
     pagecolor="#ffffff"
     bordercolor="#666666"
     borderopacity="1"
     objecttolerance="10"
     gridtolerance="10"
     guidetolerance="10"
     inkscape:pageopacity="0"
     inkscape:pageshadow="2"
     inkscape:window-width="2160"
     inkscape:window-height="1346"
     id="namedview1165"
     showgrid="false"
     inkscape:zoom="2.6882798"
     inkscape:cx="415.29036"
     inkscape:cy="161.86856"
     inkscape:window-x="-11"
     inkscape:window-y="-11"
     inkscape:window-maximized="1"
     inkscape:current-layer="f0b4e0b4-8ccd-46fa-8baa-3b2354185db9" />
  <rect
     x="13"
     width="328"
     height="420"
     id="rect1072"
     fill="#e6e6e6" />
  <rect
     x="34.77212"
     y="25.32567"
     width="283.77481"
     height="179.66264"
     id="rect1074"
     fill="#fff" />
  <rect
     x="34.77002"
     y="197.62"
     width="283.77997"
     height="192.56"
     id="rect1076"
     fill="#fff" />
  <rect
     x="169.28875"
     y="24.40432"
     width="14.74155"
     height="180.58398"
     id="rect1078"
     fill="#3f3d56" />
  <rect
     x="303.80538"
     y="24.40432"
     width="14.74155"
     height="180.58398"
     id="rect1080"
     fill="#3f3d56" />
  <rect
     x="34.77206"
     y="190.24674"
     width="283.77484"
     height="14.74155"
     id="rect1082"
     fill="#3f3d56" />
  <polygon
     points="74.876 122.067 49.514 139.115 49.514 153.219 87.935 122.067 74.876 122.067"
     id="polygon1084"
     fill="#fff" />
  <polygon
     points="116.663 122.067 49.514 174.634 49.514 186.649 137.034 122.067 116.663 122.067"
     id="polygon1086"
     fill="#e6e6e6" />
  <rect
     x="34.77212"
     y="24.40432"
     width="14.74155"
     height="180.58398"
     id="rect1088"
     fill="#3f3d56" />
  <polygon
     points="277.543 39.146 220.884 111.011 238.39 112.853 287.221 36.382 277.543 39.146"
     id="polygon1090"
     fill="#e6e6e6" />
  <rect
     x="34.77212"
     y="24.40432"
     width="283.77481"
     height="14.74155"
     id="rect1092"
     fill="#3f3d56" />
  <rect
     x="34.77209"
     y="107.32553"
     width="283.77481"
     height="14.74155"
     id="rect1094"
     fill="#3f3d56" />
  <path
     d="M248.23421,625.589v5.87847s-3.919,30.37187-14.69609,30.37187-1.95949-31.35161-1.95949-31.35161v-4.89866Z"
     id="path1146"
     transform="translate(-156 -238.16065)"
     fill="#9e616a" />
  <path
     d="M411.85027,514.87873l-1.95948-4.89868s-12.73654-18.615-3.91891-23.51373,19.59475,19.59475,19.59475,19.59475l1.95948,7.83792Z"
     id="path1148"
     transform="translate(-156 -238.16065)"
     fill="#9e616a" />
  <circle
     cx="218.53908"
     cy="245.99258"
     id="circle1150"
     r="25.861521"
     style="fill:#9e616a" />
  <polygon
     points="196.576 247.816 178.942 261.532 203.435 282.106 217.15 265.451 196.576 247.816"
     id="polygon1152"
     fill="#9e616a" />
  <path
     d="M368.67,628.34065H278.61l6.83-72.43,5.07-53.79v-.00994a8.81521,8.81521,0,0,1,9.62-7.95l37.37,3.54,27.5,15.81.8,7.25,27.44,19.59-18.65,35.48-11.73,22.33Z"
     id="path1154"
     transform="translate(-156 -238.16065)"
     fill="#21bf73" />
  <path
     d="M291.34262,548.1898l-25.47315,33.31106L250.1937,628.52825H226.68l16.65551-69.56133,43.96435-60.11462a8.85538,8.85538,0,0,1,10.13523-3.08592,8.04718,8.04718,0,0,0,1.74544.49735Z"
     id="path1156"
     transform="translate(-156 -238.16065)"
     fill="#21bf73" />
  <polygon
     points="215.681 336.482 276.915 361.465 287.691 350.689 272.506 271.819 252.911 275.739 260.749 322.766 237.236 302.192 229.397 300.232 215.681 336.482"
     id="polygon1158"
     fill="#21bf73" />
  <path
     d="M345.86776,491.414a67.35349,67.35349,0,0,1,3.36673-30.499c5.73763-15.40194,24.03132-10.76013,34.44889-7.2673s24.2215,18.10334,20.62981,26.07824-20.63743-2.10024-26.71752-7.23673-16.70315,10.46331-16.70315,10.46331Z"
     id="path1160"
     transform="translate(-156 -238.16065)"
     fill="#2f2e41" />
  <ellipse
     cx="361.54765"
     cy="481.19697"
     rx="5.05986"
     ry="2.81103"
     transform="translate(-370.21712 418.42773) rotate(-70.02257)"
     id="ellipse1162"
     fill="#9e616a" />
  <ellipse
     style="fill:#3f3d56;stroke-width:0.41598362"
     cx="721.35742"
     cy="394.77167"
     rx="160.4767"
     ry="14.578649"
     id="ellipse1845" />
  <path
     inkscape:connector-curvature="0"
     style="fill:#a0616a;stroke-width:0.45288005"
     d="m 831.09244,191.62348 c 0,0 1.18853,15.74091 1.18853,16.32391 0,0.583 -8.31941,40.80978 -8.31941,40.80978 0,0 -11.88486,22.15388 0,21.57089 11.88486,-0.583 8.31941,-20.98787 8.31941,-20.98787 l 12.47909,-33.81382 -5.3482,-23.90287 z"
     id="path1849" />
  <rect
     style="fill:#f2f2f2;stroke-width:0.45288005"
     x="600.40631"
     y="231.91946"
     width="236.14108"
     height="162.74179"
     id="rect1869" />
  <rect
     style="fill:#3f3d56;stroke-width:0.45288005"
     x="620.28467"
     y="294.01291"
     width="59.292324"
     height="101.54549"
     id="rect1871" />
  <rect
     style="fill:#f2f2f2;stroke-width:0.45288005"
     x="631.25195"
     y="300.10474"
     width="15.971724"
     height="14.607093"
     id="rect1873" />
  <rect
     style="fill:#f2f2f2;stroke-width:0.45288005"
     x="652.63788"
     y="300.10474"
     width="15.971724"
     height="14.607093"
     id="rect1875" />
  <rect
     style="fill:#f2f2f2;stroke-width:0.45288005"
     x="631.25195"
     y="320.0235"
     width="15.971724"
     height="15.138261"
     id="rect1877" />
  <rect
     style="fill:#f2f2f2;stroke-width:0.45288005"
     x="652.63788"
     y="320.0235"
     width="15.971724"
     height="15.138261"
     id="rect1879" />
  <ellipse
     style="fill:#21bf73;stroke-width:0.45288005"
     cx="672.03693"
     cy="351.6221"
     id="circle1881"
     rx="3.7700298"
     ry="3.6986747" />
  <rect
     style="fill:#3f3d56;stroke-width:0.45288005"
     x="699.45538"
     y="284.37341"
     width="117.21373"
     height="96.501839"
     id="rect1883" />
  <polygon
     transform="matrix(0.45722772,0,0,0.44857379,533.57371,105.04844)"
     style="fill:#3f3d56"
     points="673.786,199.628 679.295,219.117 686.499,244.603 692.008,264.092 716.602,351.134 92.199,351.134 133.831,264.092 143.148,244.603 155.337,219.117 164.654,199.628 175.455,177.051 667.407,177.051 "
     id="polygon1885" />
  <rect
     style="fill:#21bf73;stroke-width:0.45288005"
     x="703.56805"
     y="324.38641"
     width="4.1127629"
     height="24.882008"
     id="rect1887" />
  <rect
     style="fill:#f2f2f2;stroke-width:0.45288005"
     x="703.56805"
     y="328.08508"
     width="4.1127629"
     height="3.026191"
     id="rect1889" />
  <rect
     style="fill:#f2f2f2;stroke-width:0.45288005"
     x="703.56805"
     y="342.54358"
     width="4.1127629"
     height="3.026191"
     id="rect1891" />
  <rect
     style="fill:#21bf73;stroke-width:0.45288005"
     x="709.73718"
     y="324.38641"
     width="9.9391747"
     height="24.882008"
     id="rect1893" />
  <rect
     style="fill:#f2f2f2;stroke-width:0.45288005"
     x="709.73718"
     y="328.08508"
     width="9.9391747"
     height="3.026191"
     id="rect1895" />
  <rect
     style="fill:#f2f2f2;stroke-width:0.45288005"
     x="709.73718"
     y="342.54358"
     width="9.9391747"
     height="3.026191"
     id="rect1897" />
  <rect
     style="fill:#21bf73;stroke-width:0.45288005"
     x="722.07544"
     y="324.38641"
     width="4.1127629"
     height="24.882008"
     id="rect1899" />
  <rect
     style="fill:#f2f2f2;stroke-width:0.45288005"
     x="722.07544"
     y="328.08508"
     width="4.1127629"
     height="3.026191"
     id="rect1901" />
  <rect
     style="fill:#f2f2f2;stroke-width:0.45288005"
     x="722.07544"
     y="342.54358"
     width="4.1127629"
     height="3.026191"
     id="rect1903" />
  <rect
     style="fill:#21bf73;stroke-width:0.45288005"
     x="728.24469"
     y="324.38641"
     width="4.1127629"
     height="24.882008"
     id="rect1905" />
  <rect
     style="fill:#f2f2f2;stroke-width:0.45288005"
     x="728.24469"
     y="328.08508"
     width="4.1127629"
     height="3.026191"
     id="rect1907" />
  <rect
     style="fill:#f2f2f2;stroke-width:0.45288005"
     x="728.24469"
     y="342.54358"
     width="4.1127629"
     height="3.026191"
     id="rect1909" />
  <rect
     style="fill:#21bf73;stroke-width:0.45289811"
     x="566.89679"
     y="559.77435"
     width="4.103159"
     height="24.942232"
     transform="matrix(0.93791711,-0.34685949,0.35866219,0.93346742,0,0)"
     id="rect1911" />
  <rect
     style="fill:#f2f2f2;stroke-width:0.45289811"
     x="566.89691"
     y="563.48206"
     width="4.103159"
     height="3.0335157"
     transform="matrix(0.93791711,-0.34685949,0.35866219,0.93346742,0,0)"
     id="rect1913" />
  <rect
     style="fill:#f2f2f2;stroke-width:0.45289811"
     x="566.89679"
     y="577.97546"
     width="4.103159"
     height="3.0335157"
     transform="matrix(0.93791711,-0.34685949,0.35866219,0.93346742,0,0)"
     id="rect1915" />
  <rect
     style="fill:#21bf73;stroke-width:0.45288005"
     x="802.95984"
     y="324.38641"
     width="9.9391747"
     height="24.882008"
     id="rect1917" />
  <rect
     style="fill:#f2f2f2;stroke-width:0.45288005"
     x="802.95984"
     y="328.08508"
     width="9.9391747"
     height="3.026191"
     id="rect1919" />
  <rect
     style="fill:#f2f2f2;stroke-width:0.45288005"
     x="802.95984"
     y="342.54358"
     width="9.9391747"
     height="3.026191"
     id="rect1921" />
  <rect
     style="fill:#21bf73;stroke-width:0.45288005"
     x="796.448"
     y="324.38641"
     width="4.1127629"
     height="24.882008"
     id="rect1923" />
  <rect
     style="fill:#f2f2f2;stroke-width:0.45288005"
     x="796.448"
     y="328.08508"
     width="4.1127629"
     height="3.026191"
     id="rect1925" />
  <rect
     style="fill:#f2f2f2;stroke-width:0.45288005"
     x="796.448"
     y="342.54358"
     width="4.1127629"
     height="3.026191"
     id="rect1927" />
  <rect
     style="fill:#21bf73;stroke-width:0.45288005"
     x="790.27881"
     y="324.38641"
     width="4.1127629"
     height="24.882008"
     id="rect1929" />
  <rect
     style="fill:#f2f2f2;stroke-width:0.45288005"
     x="790.27881"
     y="328.08508"
     width="4.1127629"
     height="3.026191"
     id="rect1931" />
  <rect
     style="fill:#f2f2f2;stroke-width:0.45288005"
     x="790.27881"
     y="342.54358"
     width="4.1127629"
     height="3.026191"
     id="rect1933" />
  <rect
     style="fill:#21bf73;stroke-width:0.45289811"
     x="-56.533798"
     y="850.4444"
     width="24.942232"
     height="4.103159"
     transform="matrix(0.35866219,-0.93346742,0.93791711,0.34685949,0,0)"
     id="rect1935" />
  <rect
     style="fill:#f2f2f2;stroke-width:0.45289811"
     x="-38.33268"
     y="850.4444"
     width="3.0335157"
     height="4.103159"
     transform="matrix(0.35866219,-0.93346742,0.93791711,0.34685949,0,0)"
     id="rect1937" />
  <rect
     style="fill:#f2f2f2;stroke-width:0.45289811"
     x="-52.826153"
     y="850.44452"
     width="3.0335157"
     height="4.103159"
     transform="matrix(0.35866219,-0.93346742,0.93791711,0.34685949,0,0)"
     id="rect1939" />
  <rect
     style="fill:#f2f2f2;stroke-width:0.45288005"
     x="699.45538"
     y="349.26843"
     width="117.21373"
     height="2.3537025"
     id="rect1941" />
  <rect
     style="fill:#21bf73;stroke-width:0.45288005"
     x="750.52209"
     y="324.38641"
     width="21.592003"
     height="24.882008"
     id="rect1943" />
  <rect
     style="fill:#f2f2f2;stroke-width:0.45288005"
     x="755.83447"
     y="329.7663"
     width="10.967366"
     height="4.7074051"
     id="rect1945" />
  <rect
     style="fill:#f2f2f2;stroke-width:0.45288005"
     x="757.03394"
     y="284.37341"
     width="2.0563815"
     height="21.519575"
     id="rect1947" />
  <ellipse
     style="fill:#f2f2f2;stroke-width:0.45288005"
     cx="758.06213"
     cy="305.89304"
     id="circle1949"
     rx="3.4273014"
     ry="3.3624327" />
  <polygon
     transform="matrix(0.45722772,0,0,0.44857379,533.57371,105.04844)"
     style="fill:#21bf73"
     points="679.295,219.117 155.337,219.117 164.654,199.628 673.786,199.628 "
     id="polygon1951" />
  <polygon
     transform="matrix(0.45722772,0,0,0.44857379,533.57371,105.04844)"
     style="fill:#21bf73"
     points="692.008,264.092 133.831,264.092 143.148,244.603 686.499,244.603 "
     id="polygon1953" />
  <ellipse
     style="fill:#21bf73;stroke-width:0.45288005"
     cx="713.95599"
     cy="239.97598"
     id="circle1959"
     rx="45.722775"
     ry="44.85738" />
  <ellipse
     style="opacity:0.1;stroke-width:0.45288005"
     cx="713.95599"
     cy="239.97598"
     id="circle1961"
     rx="39.321587"
     ry="38.577343" />
  <g
     transform="matrix(0.96500484,0,0,1.0731121,682.94464,202.68993)"
     id="Bread">
    <path
       inkscape:connector-curvature="0"
       d="M 13.42,21.81 C 7.48,25.39 4,30.58 4,36 4,45.25 13.84,47 32,47 50.16,47 60,45.25 60,36 60,30.03 55.84,24.42 48.81,20.82 l -0.97,3.64 A 4.0073058,4.0073058 0 0 1 40.1,22.38 l 1.16,-4.31 a 38.384,38.384 0 0 0 -4.91,-0.84 l -2.55,9.53 a 4.0060111,4.0060111 0 1 1 -7.74,-2.07 l 2.02,-7.5 a 38.116,38.116 0 0 0 -5.39,0.89 l -1.9,7.13 a 4.0011811,4.0011811 0 0 1 -7.73,-2.07 z"
       id="path2724" />
    <path
       inkscape:connector-curvature="0"
       d="m 16.41,26.1 a 1.987,1.987 0 0 0 2.44,-1.41 l 1.02,-3.81 a 33.175,33.175 0 0 0 -4.65,1.94 L 15,23.66 a 1.975,1.975 0 0 0 1.41,2.44 z"
       id="path2726" />
    <path
       inkscape:connector-curvature="0"
       d="m 43.45,25.35 a 1.974,1.974 0 0 0 1.52,-0.2 1.927,1.927 0 0 0 0.93,-1.21 l 0.58,-2.16 a 34.488,34.488 0 0 0 -3.79,-1.31 l -0.65,2.43 a 1.969,1.969 0 0 0 0.2,1.52 1.927,1.927 0 0 0 1.21,0.93 z"
       id="path2728" />
    <path
       inkscape:connector-curvature="0"
       d="m 28.2,26.73 a 1.927,1.927 0 0 0 1.21,0.93 2.007,2.007 0 0 0 2.45,-1.42 l 1.93,-7.2 a 41.1,41.1 0 0 0 -4.15,0.03 L 28,25.21 a 1.969,1.969 0 0 0 0.2,1.52 z"
       id="path2730" />
  </g>
  <path
     inkscape:connector-curvature="0"
     style="fill:#21bf73;stroke-width:0.37294498;fill-opacity:1"
     d="m 434.74063,229.52384 15.41633,32.63968 c 1.86167,3.94205 8.50539,4.93108 12.13824,1.80717 l 72.80095,-62.59382 z"
     id="path8177" />
  <polygon
     transform="matrix(0.42484462,0,0,0.3273855,320.98975,134.69663)"
     style="opacity:0.1;enable-background:new"
     points="503.965,203.674 267.747,289.65 299.508,376.911 450.475,263.355 "
     id="polygon8179" />
  <path
     inkscape:connector-curvature="0"
     style="fill:#b0eacd;stroke-width:0.37294498;fill-opacity:1"
     d="m 533.16863,194.30764 -128.20366,5.26338 c -3.6235,0.14863 -5.18396,3.6127 -2.45858,5.45948 l 28.70208,19.45062 c 1.55621,1.05451 2.30861,2.64724 1.99592,4.22622 l -5.76302,29.11701 c -0.5472,2.76445 3.53683,4.64528 6.43725,2.96415 l 102.59997,-59.47154 c 3.99396,-2.31428 1.67984,-7.21426 -3.30996,-7.00932 z"
     id="path8181" />
  <path
     inkscape:connector-curvature="0"
     style="opacity:0.1;stroke-width:0.37294498;enable-background:new"
     d="m 536.06946,194.84979 -105.09083,29.4755 0.22941,0.15551 c 1.55621,1.05451 2.30861,2.64724 1.99592,4.22622 l -0.0463,0.23309 105.09126,-29.47549 c 0.75155,-1.70765 -0.17971,-3.67883 -2.17946,-4.61483 z"
     id="path8185" />
  <path
     inkscape:connector-curvature="0"
     style="fill:#404b58;stroke-width:0.34765109"
     d="m 384.64751,248.18083 c 0,3.86164 -5.20857,4.4833 -8.40987,8.09085 -4.36122,4.91369 -11.9675,8.51345 -20.87218,10.42629 -10.7643,10.34059 -35.27829,14.6795 -55.99323,9.65774 -10.44547,-2.53237 -18.37875,-7.03892 -22.33795,-12.68925 -0.68431,-0.97715 0.27555,-2.06012 2.14671,-2.41826 1.87067,-0.35789 3.94188,0.14427 4.62714,1.12167 3.29653,4.70485 9.90255,8.45716 18.59998,10.56578 14.89853,3.61207 32.15777,1.40793 42.35991,-4.80838 -6.99939,0.42173 -14.29598,-0.12566 -21.14244,-1.78518 -7.59619,-1.84122 -13.32122,-5.31255 -15.70836,-9.52328 -2.03755,-3.59572 -1.4398,-7.4556 1.68167,-10.86988 3.12051,-3.41276 8.49064,-6.08161 15.12119,-7.51542 7.42644,-1.60598 15.56024,-1.56275 22.90109,0.12139 7.34467,1.68514 12.9086,4.78073 15.667,8.71626 2.67809,3.82369 2.34867,7.96329 -0.92957,11.65704 l -1.5403,1.73567 c 3.67642,-1.56754 6.7474,-3.58216 8.87439,-5.97857 4.97965,-5.61162 14.2781,-4.57006 10.20781,-10.37923 l 13.17124,-6.28169 c -0.68479,-0.97692 19.26236,-10.46529 27.93025,-9.35723 -1.72786,4.62695 -14.85041,4.24963 -16.964,8.45268 l -9.36691,4.42343 c 2.11737,3.02045 -10.02357,3.51433 -10.02357,6.63757 z m -34.4555,15.49669 5.62356,-6.33569 c 2.46698,-2.78043 2.7156,-5.89613 0.69922,-8.77432 -2.07553,-2.9624 -6.26363,-5.2922 -11.79245,-6.56064 -5.52545,-1.26769 -11.64915,-1.29961 -17.24337,-0.09 -10.23147,2.21268 -15.78675,8.28877 -12.64412,13.83128 1.79806,3.17325 6.10926,5.7878 11.82708,7.17387 7.67553,1.86082 16.04643,2.01187 23.53008,0.75548 z"
     id="path8183"
     sodipodi:nodetypes="sccccccccccccccccccccccscccccccc" />
</svg>
