<?xml version="1.0" encoding="UTF-8" standalone="no"?>
<!-- Generator: Adobe Illustrator 16.0.0, SVG Export Plug-In . SVG Version: 6.00 Build 0)  -->

<svg
   xmlns:dc="http://purl.org/dc/elements/1.1/"
   xmlns:cc="http://creativecommons.org/ns#"
   xmlns:rdf="http://www.w3.org/1999/02/22-rdf-syntax-ns#"
   xmlns:svg="http://www.w3.org/2000/svg"
   xmlns="http://www.w3.org/2000/svg"
   xmlns:sodipodi="http://sodipodi.sourceforge.net/DTD/sodipodi-0.dtd"
   xmlns:inkscape="http://www.inkscape.org/namespaces/inkscape"
   version="1.1"
   id="Capa_1"
   x="0px"
   y="0px"
   width="97.713px"
   height="97.713px"
   viewBox="0 0 97.713 97.713"
   style="enable-background:new 0 0 97.713 97.713;"
   xml:space="preserve"
   sodipodi:docname="liquorstore_icon.svg"
   inkscape:version="0.92.4 (fd57863, 2020-04-02)"><metadata
   id="metadata3887"><rdf:RDF><cc:Work
       rdf:about=""><dc:format>image/svg+xml</dc:format><dc:type
         rdf:resource="http://purl.org/dc/dcmitype/StillImage" /><dc:title></dc:title></cc:Work></rdf:RDF></metadata><defs
   id="defs3885" /><sodipodi:namedview
   pagecolor="#ffffff"
   bordercolor="#666666"
   borderopacity="1"
   objecttolerance="10"
   gridtolerance="10"
   guidetolerance="10"
   inkscape:pageopacity="0"
   inkscape:pageshadow="2"
   inkscape:window-width="2740"
   inkscape:window-height="1792"
   id="namedview3883"
   showgrid="false"
   inkscape:zoom="2.4152365"
   inkscape:cx="181.3487"
   inkscape:cy="29.32564"
   inkscape:window-x="140"
   inkscape:window-y="54"
   inkscape:window-maximized="1"
   inkscape:current-layer="Capa_1" />
<g
   id="g3850">
	<path
   d="M48.855,0C29.021,0,12.883,16.138,12.883,35.974c0,5.174,1.059,10.114,3.146,14.684   c8.994,19.681,26.238,40.46,31.31,46.359c0.38,0.441,0.934,0.695,1.517,0.695s1.137-0.254,1.517-0.695   c5.07-5.898,22.314-26.676,31.311-46.359c2.088-4.57,3.146-9.51,3.146-14.684C84.828,16.138,68.69,0,48.855,0z M48.855,54.659   c-10.303,0-18.686-8.383-18.686-18.686c0-10.304,8.383-18.687,18.686-18.687s18.686,8.383,18.686,18.687   C67.542,46.276,59.159,54.659,48.855,54.659z"
   id="path3848" />
</g>
<g
   id="g3852">
</g>
<g
   id="g3854">
</g>
<g
   id="g3856">
</g>
<g
   id="g3858">
</g>
<g
   id="g3860">
</g>
<g
   id="g3862">
</g>
<g
   id="g3864">
</g>
<g
   id="g3866">
</g>
<g
   id="g3868">
</g>
<g
   id="g3870">
</g>
<g
   id="g3872">
</g>
<g
   id="g3874">
</g>
<g
   id="g3876">
</g>
<g
   id="g3878">
</g>
<g
   id="g3880">
</g>
<circle
   style="fill:#ffffff;stroke-width:1.08447313"
   id="path4027"
   cx="48.615944"
   cy="35.433792"
   r="27.5" /><g
   transform="matrix(0.12208484,0,0,0.07812485,19.9378,13.949896)"
   id="g4028"><g
     id="g4026"><path
       inkscape:connector-curvature="0"
       d="m 419.82,280.047 c 0,-8.856 -1.212,-17.635 -3.604,-26.092 -0.915,-3.235 -3.868,-5.47 -7.231,-5.47 H 380.91 c -4.151,0 -7.515,3.365 -7.515,7.515 0,4.15 3.364,7.515 7.515,7.515 h 22.184 c 1.126,5.414 1.695,10.953 1.695,16.532 0,44.475 -36.183,80.658 -80.658,80.658 -44.475,0 -80.657,-36.183 -80.657,-80.658 0,-5.581 0.569,-11.12 1.695,-16.532 h 103.677 c 4.151,0 7.515,-3.365 7.515,-7.515 0,-4.15 -3.364,-7.515 -7.515,-7.515 H 239.282 c -3.363,0 -6.315,2.233 -7.231,5.469 -2.392,8.455 -3.604,17.234 -3.604,26.093 0,50.247 38.931,91.572 88.214,95.396 -0.027,0.26 -0.042,0.524 -0.042,0.792 v 99.949 l -36.429,21.858 c -2.951,1.77 -4.336,5.439 -3.295,8.719 0.979,3.085 3.926,5.24 7.162,5.24 h 80.157 c 3.236,0 6.183,-2.155 7.162,-5.24 1.04,-3.279 -0.345,-6.948 -3.295,-8.719 L 331.65,476.184 v -99.949 c 0,-0.268 -0.015,-0.531 -0.042,-0.792 49.281,-3.824 88.212,-45.149 88.212,-95.396 z m -82.738,216.924 h -25.897 l 12.948,-7.768 z"
       id="path4024" /></g></g><g
   transform="matrix(0.12208484,0,0,0.07812485,19.9378,13.949896)"
   id="g4034"><g
     id="g4032"><path
       inkscape:connector-curvature="0"
       d="m 388.259,272.532 h -128.25 c -4.151,0 -7.515,3.365 -7.515,7.515 0,39.502 32.138,71.64 71.64,71.64 39.502,0 71.64,-32.138 71.64,-71.64 -10e-4,-4.15 -3.364,-7.515 -7.515,-7.515 z m -64.125,64.126 c -28.668,0 -52.427,-21.42 -56.114,-49.096 h 112.227 c -3.686,27.676 -27.445,49.096 -56.113,49.096 z"
       id="path4030" /></g></g><g
   transform="matrix(0.12208484,0,0,0.07812485,19.9378,13.949896)"
   id="g4040"><g
     id="g4038"><path
       inkscape:connector-curvature="0"
       d="m 260.008,242.14 c 4.151,0 7.515,-3.365 7.515,-7.515 v -10.688 c 0,-21.498 -7.868,-40.158 -21.585,-51.198 -5.513,-4.437 -19.618,-13.055 -26.509,-17.195 V 68.268 l 11.877,-5.939 c 2.546,-1.272 4.154,-3.875 4.154,-6.721 V 7.515 C 235.46,3.365 232.095,0 227.945,0 h -96.188 c -4.15,0 -7.515,3.365 -7.515,7.515 v 48.094 c 0,2.847 1.608,5.449 4.154,6.721 l 11.877,5.939 v 87.276 c -6.89,4.139 -20.995,12.758 -26.509,17.195 -13.718,11.04 -21.585,29.7 -21.585,51.198 v 248.485 c 0,21.823 17.755,39.577 39.577,39.577 h 96.188 c 21.823,0 39.577,-17.755 39.577,-39.577 v -107.21 c 0,-4.151 -3.364,-7.515 -7.515,-7.515 -4.151,0 -7.515,3.365 -7.515,7.515 v 3.507 h -21.214 c -2.616,0 -5.045,1.361 -6.409,3.592 -7.604,12.426 -25.273,20.455 -45.018,20.455 -19.745,0 -37.414,-8.029 -45.017,-20.455 -1.366,-2.231 -3.793,-3.592 -6.41,-3.592 H 107.21 v -17.033 h 21.214 c 2.616,0 5.045,-1.361 6.41,-3.592 7.604,-12.426 25.273,-20.455 45.018,-20.455 19.745,0 37.414,8.029 45.018,20.455 1.366,2.232 3.793,3.592 6.409,3.592 h 8.69 c 4.15,0 7.515,-3.365 7.515,-7.515 0,-4.15 -3.365,-7.515 -7.515,-7.515 h -4.734 c -11.158,-14.73 -32.343,-24.047 -55.383,-24.047 -23.04,0 -44.226,9.317 -55.383,24.047 H 107.21 v -49.096 h 109.046 c 4.15,0 7.515,-3.365 7.515,-7.515 0,-4.15 -3.365,-7.515 -7.515,-7.515 H 107.21 v -48.595 c 0,-16.924 5.824,-31.317 15.978,-39.489 5.214,-4.196 22.287,-14.537 28.427,-18.167 2.286,-1.353 3.689,-3.811 3.689,-6.469 V 143.28 H 204.4 v 16.532 c 0,2.656 1.403,5.116 3.689,6.469 6.138,3.63 23.209,13.969 28.427,18.167 10.155,8.172 15.978,22.565 15.978,39.489 v 10.688 c 0,4.15 3.363,7.515 7.514,7.515 z m -7.514,230.283 c 0,13.535 -11.013,24.548 -24.548,24.548 h -96.188 c -13.535,0 -24.548,-11.013 -24.548,-24.548 V 447.875 H 252.494 Z M 124.469,383.75 c 11.157,14.73 32.343,24.047 55.383,24.047 23.04,0 44.226,-9.317 55.383,-24.047 h 17.259 v 49.096 H 107.21 V 383.75 Z M 204.4,63.624 V 128.25 H 155.304 V 63.624 c 0,-2.847 -1.608,-5.449 -4.154,-6.721 L 139.273,50.964 V 15.029 h 81.159 v 35.935 l -11.877,5.939 c -2.547,1.273 -4.155,3.875 -4.155,6.721 z"
       id="path4036" /></g></g></svg>