<?xml version="1.0" encoding="UTF-8" standalone="no"?>
<!-- Generator: Adobe Illustrator 16.0.0, SVG Export Plug-In . SVG Version: 6.00 Build 0)  -->

<svg
   xmlns:dc="http://purl.org/dc/elements/1.1/"
   xmlns:cc="http://creativecommons.org/ns#"
   xmlns:rdf="http://www.w3.org/1999/02/22-rdf-syntax-ns#"
   xmlns:svg="http://www.w3.org/2000/svg"
   xmlns="http://www.w3.org/2000/svg"
   xmlns:sodipodi="http://sodipodi.sourceforge.net/DTD/sodipodi-0.dtd"
   xmlns:inkscape="http://www.inkscape.org/namespaces/inkscape"
   version="1.1"
   id="Capa_1"
   x="0px"
   y="0px"
   width="97.713px"
   height="97.713px"
   viewBox="0 0 97.713 97.713"
   style="enable-background:new 0 0 97.713 97.713;"
   xml:space="preserve"
   sodipodi:docname="minimarket_icon_hover.svg"
   inkscape:version="0.92.4 (5da689c313, 2019-01-14)"><metadata
   id="metadata3887"><rdf:RDF><cc:Work
       rdf:about=""><dc:format>image/svg+xml</dc:format><dc:type
         rdf:resource="http://purl.org/dc/dcmitype/StillImage" /><dc:title /></cc:Work></rdf:RDF></metadata><defs
   id="defs3885" /><sodipodi:namedview
   pagecolor="#ffffff"
   bordercolor="#666666"
   borderopacity="1"
   objecttolerance="10"
   gridtolerance="10"
   guidetolerance="10"
   inkscape:pageopacity="0"
   inkscape:pageshadow="2"
   inkscape:window-width="2160"
   inkscape:window-height="1346"
   id="namedview3883"
   showgrid="false"
   inkscape:zoom="2.4152365"
   inkscape:cx="48.856499"
   inkscape:cy="-103.16656"
   inkscape:window-x="-11"
   inkscape:window-y="-11"
   inkscape:window-maximized="1"
   inkscape:current-layer="Capa_1" />
<g
   id="g3850"
   style="fill:#338000">
	<path
   d="M48.855,0C29.021,0,12.883,16.138,12.883,35.974c0,5.174,1.059,10.114,3.146,14.684   c8.994,19.681,26.238,40.46,31.31,46.359c0.38,0.441,0.934,0.695,1.517,0.695s1.137-0.254,1.517-0.695   c5.07-5.898,22.314-26.676,31.311-46.359c2.088-4.57,3.146-9.51,3.146-14.684C84.828,16.138,68.69,0,48.855,0z M48.855,54.659   c-10.303,0-18.686-8.383-18.686-18.686c0-10.304,8.383-18.687,18.686-18.687s18.686,8.383,18.686,18.687   C67.542,46.276,59.159,54.659,48.855,54.659z"
   id="path3848"
   style="fill:#338000" />
</g>
<g
   id="g3852">
</g>
<g
   id="g3854">
</g>
<g
   id="g3856">
</g>
<g
   id="g3858">
</g>
<g
   id="g3860">
</g>
<g
   id="g3862">
</g>
<g
   id="g3864">
</g>
<g
   id="g3866">
</g>
<g
   id="g3868">
</g>
<g
   id="g3870">
</g>
<g
   id="g3872">
</g>
<g
   id="g3874">
</g>
<g
   id="g3876">
</g>
<g
   id="g3878">
</g>
<g
   id="g3880">
</g>
<circle
   style="fill:#ffffff;stroke-width:1.08447313"
   id="path4027"
   cx="48.615944"
   cy="35.433792"
   r="27.5" /><path
   style="stroke-width:0.06501313;fill:#338000"
   inkscape:connector-curvature="0"
   d="m 42.255265,40.730609 h 17.884854 c 0.442893,0 0.831383,-0.284204 0.951262,-0.696999 L 65.05132,26.583692 c 0.08501,-0.28996 0.02684,-0.601436 -0.160599,-0.842357 C 64.703053,25.501162 64.41122,25.359312 64.09981,25.359312 H 39.969944 l -0.707641,-3.09022 C 39.161783,21.829025 38.75961,21.516548 38.29559,21.516548 h -6.005533 c -0.547027,0 -0.989919,0.429808 -0.989919,0.96069 0,0.531134 0.442892,0.960689 0.989919,0.960689 h 5.211023 l 3.574799,15.611224 c -1.051797,0.44382 -1.79037,1.459803 -1.79037,2.642148 0,1.589145 1.332276,2.882076 2.969756,2.882076 h 17.884854 c 0.547291,0 0.989935,-0.429563 0.989935,-0.96069 0,-0.530883 -0.442644,-0.960689 -0.989935,-0.960689 H 42.255265 c -0.545227,0 -0.989918,-0.430564 -0.989918,-0.960697 0,-0.530126 0.444691,-0.96069 0.989918,-0.96069 z m 0,0"
   id="path4413" /><path
   style="stroke-width:0.06501313;fill:#338000"
   inkscape:connector-curvature="0"
   d="m 41.265347,47.455442 c 0,1.589397 1.332275,2.882073 2.970035,2.882073 1.637481,0 2.969757,-1.292676 2.969757,-2.882073 0,-1.589137 -1.332276,-2.882067 -2.969757,-2.882067 -1.63776,0 -2.970035,1.29293 -2.970035,2.882067 z m 0,0"
   id="path4415" /><path
   style="stroke-width:0.06501313;fill:#338000"
   inkscape:connector-curvature="0"
   d="m 55.190525,47.455442 c 0,1.589397 1.33226,2.882073 2.969757,2.882073 1.63776,0 2.969772,-1.292676 2.969772,-2.882073 0,-1.589137 -1.332012,-2.882067 -2.969772,-2.882067 -1.637497,0 -2.969757,1.29293 -2.969757,2.882067 z m 0,0"
   id="path4417" /></svg>