<?xml version="1.0" encoding="UTF-8" standalone="no"?>
<!-- Generator: Adobe Illustrator 16.0.0, SVG Export Plug-In . SVG Version: 6.00 Build 0)  -->

<svg
   xmlns:dc="http://purl.org/dc/elements/1.1/"
   xmlns:cc="http://creativecommons.org/ns#"
   xmlns:rdf="http://www.w3.org/1999/02/22-rdf-syntax-ns#"
   xmlns:svg="http://www.w3.org/2000/svg"
   xmlns="http://www.w3.org/2000/svg"
   xmlns:sodipodi="http://sodipodi.sourceforge.net/DTD/sodipodi-0.dtd"
   xmlns:inkscape="http://www.inkscape.org/namespaces/inkscape"
   version="1.1"
   id="Capa_1"
   x="0px"
   y="0px"
   width="97.713px"
   height="97.713px"
   viewBox="0 0 97.713 97.713"
   style="enable-background:new 0 0 97.713 97.713;"
   xml:space="preserve"
   sodipodi:docname="pharmacy_icon_hover.svg"
   inkscape:version="0.92.4 (5da689c313, 2019-01-14)"><metadata
   id="metadata3887"><rdf:RDF><cc:Work
       rdf:about=""><dc:format>image/svg+xml</dc:format><dc:type
         rdf:resource="http://purl.org/dc/dcmitype/StillImage" /><dc:title /></cc:Work></rdf:RDF></metadata><defs
   id="defs3885" /><sodipodi:namedview
   pagecolor="#ffffff"
   bordercolor="#666666"
   borderopacity="1"
   objecttolerance="10"
   gridtolerance="10"
   guidetolerance="10"
   inkscape:pageopacity="0"
   inkscape:pageshadow="2"
   inkscape:window-width="2160"
   inkscape:window-height="1346"
   id="namedview3883"
   showgrid="false"
   inkscape:zoom="8"
   inkscape:cx="118.50895"
   inkscape:cy="85.632885"
   inkscape:window-x="-11"
   inkscape:window-y="-11"
   inkscape:window-maximized="1"
   inkscape:current-layer="Capa_1" />
<g
   id="g3850"
   style="fill:#338000">
	<path
   d="M48.855,0C29.021,0,12.883,16.138,12.883,35.974c0,5.174,1.059,10.114,3.146,14.684   c8.994,19.681,26.238,40.46,31.31,46.359c0.38,0.441,0.934,0.695,1.517,0.695s1.137-0.254,1.517-0.695   c5.07-5.898,22.314-26.676,31.311-46.359c2.088-4.57,3.146-9.51,3.146-14.684C84.828,16.138,68.69,0,48.855,0z M48.855,54.659   c-10.303,0-18.686-8.383-18.686-18.686c0-10.304,8.383-18.687,18.686-18.687s18.686,8.383,18.686,18.687   C67.542,46.276,59.159,54.659,48.855,54.659z"
   id="path3848"
   style="fill:#338000" />
</g>
<g
   id="g3852">
</g>
<g
   id="g3854">
</g>
<g
   id="g3856">
</g>
<g
   id="g3858">
</g>
<g
   id="g3860">
</g>
<g
   id="g3862">
</g>
<g
   id="g3864">
</g>
<g
   id="g3866">
</g>
<g
   id="g3868">
</g>
<g
   id="g3870">
</g>
<g
   id="g3872">
</g>
<g
   id="g3874">
</g>
<g
   id="g3876">
</g>
<g
   id="g3878">
</g>
<g
   id="g3880">
</g>
<circle
   style="fill:#ffffff;stroke-width:1.08447313"
   id="path4027"
   cx="48.615944"
   cy="35.433792"
   r="27.5" /><g
   transform="matrix(0.0876644,0,0,0.07488456,28.621453,14.780655)"
   id="g4118"
   style="fill:#338000"><g
     id="g4116"
     style="fill:#338000"><path
       inkscape:connector-curvature="0"
       d="m 125.696,125.994 c -5.52,0 -10,4.48 -10,10 0,5.52 4.48,10 10,10 5.52,0 10,-4.48 10,-10 0,-5.52 -4.48,-10 -10,-10 z"
       id="path4114"
       style="fill:#338000" /></g></g><g
   transform="matrix(0.0876644,0,0,0.07488456,28.621453,14.780655)"
   id="g4124"
   style="fill:#338000"><g
     id="g4122"
     style="fill:#338000"><path
       inkscape:connector-curvature="0"
       d="m 215.691,312.984 h -29.998 v -29.998 c 0,-5.522 -4.478,-10 -10,-10 -5.522,0 -9.999,4.478 -9.999,10 v 29.998 h -29.998 c -5.522,0 -10,4.478 -10,9.999 0,5.521 4.478,10 10,10 h 29.998 v 29.998 c 0,5.522 4.478,10 9.999,10 5.521,0 10,-4.478 10,-10 v -29.998 h 29.998 c 5.522,0 10,-4.478 10,-10 0,-5.522 -4.477,-9.999 -10,-9.999 z"
       id="path4120"
       style="fill:#338000" /></g></g><g
   transform="matrix(0.0876644,0,0,0.07488456,28.621453,14.780655)"
   id="g4130"
   style="fill:#338000"><g
     id="g4128"
     style="fill:#338000"><path
       inkscape:connector-curvature="0"
       d="M 485.578,321.984 C 463.473,283.698 414.597,270.595 376.304,292.705 l -40.618,23.45 v -86.836 c 0,-10.735 -3.55,-21.388 -9.999,-29.998 L 275.69,132.66 v -28.386 c 11.638,-4.128 19.999,-15.242 19.999,-28.279 V 29.998 C 295.687,13.457 282.23,0 265.689,0 H 85.698 C 69.157,0 55.699,13.457 55.699,29.998 v 45.998 c 0,13.035 8.361,24.151 19.999,28.279 v 28.386 l -50.001,66.665 c -6.446,8.606 -9.996,19.258 -9.996,29.993 v 193.66 c 0,27.569 22.429,49.997 49.997,49.997 H 226.4 c 22.421,37.583 70.767,50.161 108.664,28.279 L 456.3,431.258 c 37.955,-21.918 51.494,-70.779 29.278,-109.274 z M 75.698,29.998 c 0,-5.514 4.486,-10 9.999,-10 h 179.991 c 5.514,0 10,4.486 10,10 v 45.998 c 0,5.514 -4.486,9.999 -10,9.999 H 85.698 c -5.514,0 -9.999,-4.486 -9.999,-9.999 V 29.998 Z M 41.701,211.319 93.697,141.993 c 1.298,-1.73 2,-3.836 2,-6 v -29.998 h 159.992 v 19.999 h -89.995 c -5.522,0 -10,4.478 -10,10 0,5.522 4.478,10 10,10 h 94.995 l 48.993,65.322 c 3.202,4.275 5.191,9.39 5.792,14.674 H 35.913 c 0.6,-5.285 2.589,-10.4 5.788,-14.671 z m 23.998,241.658 c -16.541,0 -29.998,-13.457 -29.998,-29.998 V 412.88 h 181.675 c -3.171,12.965 -3.15,26.813 0.481,40.098 H 65.699 Z M 225.219,392.98 H 35.7 V 245.987 H 315.686 V 327.7 l -60.619,35.002 c -12.639,7.301 -22.855,17.694 -29.848,30.278 z m 99.847,90.955 c -28.697,16.571 -65.367,6.771 -81.949,-21.946 -16.661,-28.994 -6.564,-65.498 21.952,-81.969 l 54.277,-31.338 59.997,103.915 z M 446.3,413.939 396.663,442.598 336.665,338.681 386.303,310.025 c 28.716,-16.578 65.373,-6.761 81.955,21.957 16.655,28.862 6.527,65.508 -21.958,81.957 z"
       id="path4126"
       style="fill:#338000" /></g></g></svg>