<?xml version="1.0" encoding="UTF-8" standalone="no"?>
<!-- Generator: Adobe Illustrator 16.0.0, SVG Export Plug-In . SVG Version: 6.00 Build 0)  -->

<svg
   xmlns:dc="http://purl.org/dc/elements/1.1/"
   xmlns:cc="http://creativecommons.org/ns#"
   xmlns:rdf="http://www.w3.org/1999/02/22-rdf-syntax-ns#"
   xmlns:svg="http://www.w3.org/2000/svg"
   xmlns="http://www.w3.org/2000/svg"
   xmlns:sodipodi="http://sodipodi.sourceforge.net/DTD/sodipodi-0.dtd"
   xmlns:inkscape="http://www.inkscape.org/namespaces/inkscape"
   version="1.1"
   id="Capa_1"
   x="0px"
   y="0px"
   width="97.713px"
   height="97.713px"
   viewBox="0 0 97.713 97.713"
   style="enable-background:new 0 0 97.713 97.713;"
   xml:space="preserve"
   sodipodi:docname="restaurant_icon.svg"
   inkscape:version="0.92.4 (fd57863, 2020-04-02)"><metadata
   id="metadata3887"><rdf:RDF><cc:Work
       rdf:about=""><dc:format>image/svg+xml</dc:format><dc:type
         rdf:resource="http://purl.org/dc/dcmitype/StillImage" /><dc:title></dc:title></cc:Work></rdf:RDF></metadata><defs
   id="defs3885" /><sodipodi:namedview
   pagecolor="#ffffff"
   bordercolor="#666666"
   borderopacity="1"
   objecttolerance="10"
   gridtolerance="10"
   guidetolerance="10"
   inkscape:pageopacity="0"
   inkscape:pageshadow="2"
   inkscape:window-width="2740"
   inkscape:window-height="1792"
   id="namedview3883"
   showgrid="false"
   inkscape:zoom="2.4152365"
   inkscape:cx="181.3487"
   inkscape:cy="29.32564"
   inkscape:window-x="140"
   inkscape:window-y="54"
   inkscape:window-maximized="1"
   inkscape:current-layer="Capa_1" />
<g
   id="g3850">
	<path
   d="M48.855,0C29.021,0,12.883,16.138,12.883,35.974c0,5.174,1.059,10.114,3.146,14.684   c8.994,19.681,26.238,40.46,31.31,46.359c0.38,0.441,0.934,0.695,1.517,0.695s1.137-0.254,1.517-0.695   c5.07-5.898,22.314-26.676,31.311-46.359c2.088-4.57,3.146-9.51,3.146-14.684C84.828,16.138,68.69,0,48.855,0z M48.855,54.659   c-10.303,0-18.686-8.383-18.686-18.686c0-10.304,8.383-18.687,18.686-18.687s18.686,8.383,18.686,18.687   C67.542,46.276,59.159,54.659,48.855,54.659z"
   id="path3848" />
</g>
<g
   id="g3852">
</g>
<g
   id="g3854">
</g>
<g
   id="g3856">
</g>
<g
   id="g3858">
</g>
<g
   id="g3860">
</g>
<g
   id="g3862">
</g>
<g
   id="g3864">
</g>
<g
   id="g3866">
</g>
<g
   id="g3868">
</g>
<g
   id="g3870">
</g>
<g
   id="g3872">
</g>
<g
   id="g3874">
</g>
<g
   id="g3876">
</g>
<g
   id="g3878">
</g>
<g
   id="g3880">
</g>
<circle
   style="fill:#ffffff;stroke-width:1.08447313"
   id="path4027"
   cx="48.615944"
   cy="35.433792"
   r="27.5" /><g
   transform="matrix(0.06840019,0,0,0.06835928,30.656668,16.879556)"
   id="g215"><g
     id="g213"><path
       inkscape:connector-curvature="0"
       d="M 498.682,435.326 297.917,234.56 63.357,0 H 45.026 l -3.743,9.511 c -9.879,25.104 -14.1,50.78 -12.205,74.249 2.16,26.752 12.323,49.913 29.392,66.982 l 183.11,183.11 24.152,-24.152 169.285,189.293 c 16.84,16.84 45.825,17.84 63.665,0 17.554,-17.554 17.554,-46.114 0,-63.667 z"
       id="path211" /></g></g><g
   transform="matrix(0.06840019,0,0,0.06835928,30.656668,16.879556)"
   id="g221"><g
     id="g219"><path
       inkscape:connector-curvature="0"
       d="M 156.728,291.442 13.317,434.853 c -17.552,17.552 -17.552,46.113 0,63.665 16.674,16.674 45.519,18.146 63.665,0 L 220.394,355.106 Z"
       id="path217" /></g></g><g
   transform="matrix(0.06840019,0,0,0.06835928,30.656668,16.879556)"
   id="g227"><g
     id="g225"><path
       inkscape:connector-curvature="0"
       d="m 490.253,85.249 -81.351,81.35 -21.223,-21.222 81.351,-81.351 -21.222,-21.222 -81.35,81.35 -21.222,-21.222 81.351,-81.35 -21.221,-21.221 -106.11,106.11 c -12.981,12.981 -20.732,30.217 -21.828,48.535 -0.277,4.641 -1.329,9.206 -3.074,13.548 l 68.929,68.929 c 4.342,-1.747 8.908,-2.798 13.548,-3.075 18.318,-1.093 35.554,-8.846 48.535,-21.827 l 106.11,-106.109 z"
       id="path223" /></g></g></svg>