<?xml version="1.0" encoding="UTF-8" standalone="no"?>
<!-- Generator: Adobe Illustrator 16.0.0, SVG Export Plug-In . SVG Version: 6.00 Build 0)  -->

<svg
   xmlns:dc="http://purl.org/dc/elements/1.1/"
   xmlns:cc="http://creativecommons.org/ns#"
   xmlns:rdf="http://www.w3.org/1999/02/22-rdf-syntax-ns#"
   xmlns:svg="http://www.w3.org/2000/svg"
   xmlns="http://www.w3.org/2000/svg"
   xmlns:sodipodi="http://sodipodi.sourceforge.net/DTD/sodipodi-0.dtd"
   xmlns:inkscape="http://www.inkscape.org/namespaces/inkscape"
   version="1.1"
   id="Capa_1"
   x="0px"
   y="0px"
   width="97.713px"
   height="97.713px"
   viewBox="0 0 97.713 97.713"
   style="enable-background:new 0 0 97.713 97.713;"
   xml:space="preserve"
   sodipodi:docname="store_icon.svg"
   inkscape:version="0.92.4 (5da689c313, 2019-01-14)"><metadata
   id="metadata3887"><rdf:RDF><cc:Work
       rdf:about=""><dc:format>image/svg+xml</dc:format><dc:type
         rdf:resource="http://purl.org/dc/dcmitype/StillImage" /><dc:title></dc:title></cc:Work></rdf:RDF></metadata><defs
   id="defs3885" /><sodipodi:namedview
   pagecolor="#ffffff"
   bordercolor="#666666"
   borderopacity="1"
   objecttolerance="10"
   gridtolerance="10"
   guidetolerance="10"
   inkscape:pageopacity="0"
   inkscape:pageshadow="2"
   inkscape:window-width="2160"
   inkscape:window-height="1346"
   id="namedview3883"
   showgrid="false"
   inkscape:zoom="2.4152365"
   inkscape:cx="181.3487"
   inkscape:cy="29.32564"
   inkscape:window-x="-11"
   inkscape:window-y="-11"
   inkscape:window-maximized="1"
   inkscape:current-layer="Capa_1" />
<g
   id="g3850">
	<path
   d="M48.855,0C29.021,0,12.883,16.138,12.883,35.974c0,5.174,1.059,10.114,3.146,14.684   c8.994,19.681,26.238,40.46,31.31,46.359c0.38,0.441,0.934,0.695,1.517,0.695s1.137-0.254,1.517-0.695   c5.07-5.898,22.314-26.676,31.311-46.359c2.088-4.57,3.146-9.51,3.146-14.684C84.828,16.138,68.69,0,48.855,0z M48.855,54.659   c-10.303,0-18.686-8.383-18.686-18.686c0-10.304,8.383-18.687,18.686-18.687s18.686,8.383,18.686,18.687   C67.542,46.276,59.159,54.659,48.855,54.659z"
   id="path3848" />
</g>
<g
   id="g3852">
</g>
<g
   id="g3854">
</g>
<g
   id="g3856">
</g>
<g
   id="g3858">
</g>
<g
   id="g3860">
</g>
<g
   id="g3862">
</g>
<g
   id="g3864">
</g>
<g
   id="g3866">
</g>
<g
   id="g3868">
</g>
<g
   id="g3870">
</g>
<g
   id="g3872">
</g>
<g
   id="g3874">
</g>
<g
   id="g3876">
</g>
<g
   id="g3878">
</g>
<g
   id="g3880">
</g>
<circle
   style="fill:#ffffff;stroke-width:1.08447313"
   id="path4027"
   cx="48.615944"
   cy="35.433792"
   r="27.5" /><g
   transform="matrix(0.0740749,0,0,0.07594778,29.272278,14.094484)"
   id="g4324"><g
     id="g4322"><path
       inkscape:connector-curvature="0"
       d="m 488.468,448.903 h -8.532 V 226.4 C 499.202,214.003 512,192.386 512,167.822 c 0,-1.305 -0.341,-2.588 -0.988,-3.721 L 451.499,59.953 C 447.319,52.64 439.49,48.096 431.067,48.096 H 80.933 c -8.423,0 -16.252,4.543 -20.432,11.857 L 0.988,164.101 C 0.341,165.234 0,166.518 0,167.822 0,192.386 12.798,214.003 32.064,226.4 v 222.503 h -8.532 c -4.142,0 -7.5,3.358 -7.5,7.5 0,4.142 3.358,7.5 7.5,7.5 h 464.936 c 4.143,0 7.5,-3.358 7.5,-7.5 0,-4.142 -3.358,-7.5 -7.5,-7.5 z M 15.517,175.322 h 24.044 c 4.142,0 7.5,-3.358 7.5,-7.5 0,-4.142 -3.358,-7.5 -7.5,-7.5 H 20.424 L 73.525,67.395 c 1.516,-2.652 4.354,-4.299 7.408,-4.299 h 350.134 c 3.054,0 5.893,1.647 7.408,4.299 l 53.1,92.927 h -19.141 c -4.143,0 -7.5,3.358 -7.5,7.5 0,4.142 3.357,7.5 7.5,7.5 h 24.048 c -3.667,26.584 -26.532,47.125 -54.108,47.125 -27.575,0 -50.429,-20.543 -54.097,-47.125 h 52.096 c 4.143,0 7.5,-3.358 7.5,-7.5 0,-4.142 -3.357,-7.5 -7.5,-7.5 H 71.631 c -4.142,0 -7.5,3.358 -7.5,7.5 0,4.142 3.358,7.5 7.5,7.5 h 52.091 c -3.668,26.582 -26.523,47.125 -54.097,47.125 -27.576,0 -50.441,-20.541 -54.108,-47.125 z m 356.705,0 c -3.668,26.582 -26.523,47.125 -54.097,47.125 -27.575,0 -50.429,-20.543 -54.097,-47.125 z m -124.25,0 c -3.668,26.582 -26.523,47.125 -54.097,47.125 -27.574,0 -50.429,-20.543 -54.097,-47.125 z m 176.882,273.582 h -81.193 v -25.081 h 81.193 z m 0,-40.081 H 343.661 V 271.516 h 81.193 z m 40.082,40.081 H 439.855 V 264.016 c 0,-4.142 -3.357,-7.5 -7.5,-7.5 h -96.193 c -4.143,0 -7.5,3.358 -7.5,7.5 V 448.903 H 47.064 V 233.674 c 7.081,2.433 14.665,3.773 22.561,3.773 27.095,0 50.624,-15.556 62.125,-38.207 11.501,22.65 35.03,38.207 62.125,38.207 27.095,0 50.624,-15.556 62.125,-38.207 11.501,22.65 35.03,38.207 62.125,38.207 27.095,0 50.624,-15.556 62.125,-38.207 11.501,22.65 35.03,38.207 62.125,38.207 7.896,0 15.48,-1.34 22.561,-3.772 z"
       id="path4320" /></g></g><g
   transform="matrix(0.0740749,0,0,0.07594778,29.272278,14.094484)"
   id="g4330"><g
     id="g4328"><path
       inkscape:connector-curvature="0"
       d="M 296.081,256.516 H 79.645 c -4.142,0 -7.5,3.358 -7.5,7.5 v 152.307 c 0,4.142 3.358,7.5 7.5,7.5 h 216.436 c 4.143,0 7.5,-3.358 7.5,-7.5 V 264.016 c 0,-4.143 -3.357,-7.5 -7.5,-7.5 z m -7.5,152.307 H 87.145 V 271.516 h 201.436 z"
       id="path4326" /></g></g></svg>