<?xml version="1.0" encoding="UTF-8" standalone="no"?>
<!-- Generator: Adobe Illustrator 16.0.0, SVG Export Plug-In . SVG Version: 6.00 Build 0)  -->

<svg
   xmlns:dc="http://purl.org/dc/elements/1.1/"
   xmlns:cc="http://creativecommons.org/ns#"
   xmlns:rdf="http://www.w3.org/1999/02/22-rdf-syntax-ns#"
   xmlns:svg="http://www.w3.org/2000/svg"
   xmlns="http://www.w3.org/2000/svg"
   xmlns:sodipodi="http://sodipodi.sourceforge.net/DTD/sodipodi-0.dtd"
   xmlns:inkscape="http://www.inkscape.org/namespaces/inkscape"
   version="1.1"
   id="Capa_1"
   x="0px"
   y="0px"
   width="97.713px"
   height="97.713px"
   viewBox="0 0 97.713 97.713"
   style="enable-background:new 0 0 97.713 97.713;"
   xml:space="preserve"
   sodipodi:docname="user_icon.svg"
   inkscape:version="0.92.4 (5da689c313, 2019-01-14)"><metadata
   id="metadata3887"><rdf:RDF><cc:Work
       rdf:about=""><dc:format>image/svg+xml</dc:format><dc:type
         rdf:resource="http://purl.org/dc/dcmitype/StillImage" /><dc:title></dc:title></cc:Work></rdf:RDF></metadata><defs
   id="defs3885" /><sodipodi:namedview
   pagecolor="#ffffff"
   bordercolor="#666666"
   borderopacity="1"
   objecttolerance="10"
   gridtolerance="10"
   guidetolerance="10"
   inkscape:pageopacity="0"
   inkscape:pageshadow="2"
   inkscape:window-width="2160"
   inkscape:window-height="1346"
   id="namedview3883"
   showgrid="false"
   inkscape:zoom="2.4152365"
   inkscape:cx="48.856499"
   inkscape:cy="-3.797414"
   inkscape:window-x="-11"
   inkscape:window-y="-11"
   inkscape:window-maximized="1"
   inkscape:current-layer="Capa_1" />
<g
   id="g3850"
   style="fill:#800080">
	<path
   d="M48.855,0C29.021,0,12.883,16.138,12.883,35.974c0,5.174,1.059,10.114,3.146,14.684   c8.994,19.681,26.238,40.46,31.31,46.359c0.38,0.441,0.934,0.695,1.517,0.695s1.137-0.254,1.517-0.695   c5.07-5.898,22.314-26.676,31.311-46.359c2.088-4.57,3.146-9.51,3.146-14.684C84.828,16.138,68.69,0,48.855,0z M48.855,54.659   c-10.303,0-18.686-8.383-18.686-18.686c0-10.304,8.383-18.687,18.686-18.687s18.686,8.383,18.686,18.687   C67.542,46.276,59.159,54.659,48.855,54.659z"
   id="path3848"
   style="fill:#800080" />
</g>
<g
   id="g3852">
</g>
<g
   id="g3854">
</g>
<g
   id="g3856">
</g>
<g
   id="g3858">
</g>
<g
   id="g3860">
</g>
<g
   id="g3862">
</g>
<g
   id="g3864">
</g>
<g
   id="g3866">
</g>
<g
   id="g3868">
</g>
<g
   id="g3870">
</g>
<g
   id="g3872">
</g>
<g
   id="g3874">
</g>
<g
   id="g3876">
</g>
<g
   id="g3878">
</g>
<g
   id="g3880">
</g>
<circle
   style="fill:#ffffff;stroke-width:1.08447313"
   id="path4027"
   cx="48.615944"
   cy="35.433792"
   r="27.5" /><path
   style="fill:#800080;stroke-width:0.0818361"
   id="path4582"
   d="m 48.72953,32.439165 c 2.970761,0 5.543206,-0.92824 7.645068,-2.75967 2.101864,-1.83112 3.167352,-4.07162 3.167352,-6.66001 0,-2.58751 -1.065488,-4.8283 -3.167694,-6.66003 -2.102204,-1.83081 -4.674307,-2.75906 -7.644726,-2.75906 -2.971104,0 -5.542864,0.92825 -7.644726,2.75936 -2.101864,1.83113 -3.167693,4.07192 -3.167693,6.65973 0,2.58839 1.065829,4.82919 3.168035,6.66031 2.102206,1.83083 4.674308,2.75937 7.644384,2.75937 z m 0,0"
   inkscape:connector-curvature="0" /><path
   style="fill:#800080;stroke-width:0.0818361"
   id="path4584"
   d="m 67.648354,43.672965 c -0.06062,-0.76205 -0.183234,-1.59332 -0.363726,-2.47114 -0.182204,-0.88438 -0.416811,-1.72043 -0.697652,-2.48456 -0.29009,-0.7898 -0.684639,-1.56975 -1.172345,-2.31719 -0.5062,-0.77576 -1.100763,-1.45129 -1.767934,-2.00715 -0.697654,-0.58154 -1.551825,-1.04908 -2.539566,-1.39013 -0.984318,-0.33925 -2.07515,-0.51112 -3.242014,-0.51112 -0.458253,0 -0.901435,0.16381 -1.757318,0.64927 -0.526751,0.29926 -1.14289,0.64537 -1.830611,1.0282 -0.588056,0.32641 -1.384688,0.63224 -2.368663,0.90915 -0.959999,0.27062 -1.934727,0.40786 -2.896783,0.40786 -0.962054,0 -1.936441,-0.13724 -2.897468,-0.40786 -0.982947,-0.27661 -1.779579,-0.58244 -2.366951,-0.90885 -0.681213,-0.37924 -1.297696,-0.72536 -1.832323,-1.0288 -0.854855,-0.48546 -1.298381,-0.64926 -1.756632,-0.64926 -1.167208,0 -2.257697,0.17216 -3.241671,0.5117 -0.987057,0.34046 -1.841571,0.808 -2.539909,1.39014 -0.666827,0.55616 -1.261733,1.23139 -1.76725,2.00685 -0.487363,0.74744 -0.881912,1.52709 -1.172344,2.31749 -0.280499,0.76413 -0.515105,1.59988 -0.69731,2.48426 -0.180492,0.87662 -0.303103,1.70819 -0.363724,2.47203 -0.05959,0.74832 -0.08974,1.525 -0.08974,2.30941 0,2.04149 0.744916,3.69419 2.213857,4.91304 1.45079,1.20275 3.370447,1.81293 5.704862,1.81293 h 21.615248 c 2.334415,0 4.253387,-0.60988 5.70452,-1.81293 1.469283,-1.21795 2.214199,-2.87095 2.214199,-4.91332 -3.51e-4,-0.78802 -0.03082,-1.56528 -0.09076,-2.31002 z m 0,0"
   inkscape:connector-curvature="0" /></svg>