<?xml version="1.0" encoding="UTF-8" standalone="no"?>
<!-- Generator: Adobe Illustrator 16.0.0, SVG Export Plug-In . SVG Version: 6.00 Build 0)  -->

<svg
   xmlns:dc="http://purl.org/dc/elements/1.1/"
   xmlns:cc="http://creativecommons.org/ns#"
   xmlns:rdf="http://www.w3.org/1999/02/22-rdf-syntax-ns#"
   xmlns:svg="http://www.w3.org/2000/svg"
   xmlns="http://www.w3.org/2000/svg"
   xmlns:sodipodi="http://sodipodi.sourceforge.net/DTD/sodipodi-0.dtd"
   xmlns:inkscape="http://www.inkscape.org/namespaces/inkscape"
   version="1.1"
   id="Capa_1"
   x="0px"
   y="0px"
   width="97.713px"
   height="97.713px"
   viewBox="0 0 97.713 97.713"
   style="enable-background:new 0 0 97.713 97.713;"
   xml:space="preserve"
   sodipodi:docname="vegetablestore_icon_hover.svg"
   inkscape:version="0.92.4 (fd57863, 2020-04-02)"><metadata
   id="metadata3887"><rdf:RDF><cc:Work
       rdf:about=""><dc:format>image/svg+xml</dc:format><dc:type
         rdf:resource="http://purl.org/dc/dcmitype/StillImage" /><dc:title></dc:title></cc:Work></rdf:RDF></metadata><defs
   id="defs3885" /><sodipodi:namedview
   pagecolor="#ffffff"
   bordercolor="#666666"
   borderopacity="1"
   objecttolerance="10"
   gridtolerance="10"
   guidetolerance="10"
   inkscape:pageopacity="0"
   inkscape:pageshadow="2"
   inkscape:window-width="2740"
   inkscape:window-height="1792"
   id="namedview3883"
   showgrid="false"
   inkscape:zoom="2.4152365"
   inkscape:cx="181.3487"
   inkscape:cy="29.32564"
   inkscape:window-x="140"
   inkscape:window-y="54"
   inkscape:window-maximized="1"
   inkscape:current-layer="Capa_1" />
<g
   id="g3850"
   style="fill:#338000">
	<path
   d="M48.855,0C29.021,0,12.883,16.138,12.883,35.974c0,5.174,1.059,10.114,3.146,14.684   c8.994,19.681,26.238,40.46,31.31,46.359c0.38,0.441,0.934,0.695,1.517,0.695s1.137-0.254,1.517-0.695   c5.07-5.898,22.314-26.676,31.311-46.359c2.088-4.57,3.146-9.51,3.146-14.684C84.828,16.138,68.69,0,48.855,0z M48.855,54.659   c-10.303,0-18.686-8.383-18.686-18.686c0-10.304,8.383-18.687,18.686-18.687s18.686,8.383,18.686,18.687   C67.542,46.276,59.159,54.659,48.855,54.659z"
   id="path3848"
   style="fill:#338000" />
</g>
<g
   id="g3852">
</g>
<g
   id="g3854">
</g>
<g
   id="g3856">
</g>
<g
   id="g3858">
</g>
<g
   id="g3860">
</g>
<g
   id="g3862">
</g>
<g
   id="g3864">
</g>
<g
   id="g3866">
</g>
<g
   id="g3868">
</g>
<g
   id="g3870">
</g>
<g
   id="g3872">
</g>
<g
   id="g3874">
</g>
<g
   id="g3876">
</g>
<g
   id="g3878">
</g>
<g
   id="g3880">
</g>
<circle
   style="fill:#ffffff;stroke-width:1.08447313"
   id="path4027"
   cx="48.615944"
   cy="35.433792"
   r="27.5" /><path
   style="stroke-width:0.0806623;fill:#338000"
   inkscape:connector-curvature="0"
   d="m 63.928051,47.42133 -0.435183,-0.10637 c 4.217561,-3.68325 5.11631,-11.86175 1.143807,-16.12308 -1.528637,-1.63896 -2.44173,-4.23272 -2.44173,-6.93904 0,-3.92268 -2.420672,-7.1147 -5.396769,-7.1147 -2.975182,0 -5.39677,3.19202 -5.39677,7.1147 0,0.89138 -0.09888,1.76973 -0.286867,2.6058 -2.772543,-3.41128 -7.175346,-3.80231 -10.119406,-1.62171 v -8.00152 c 0,-0.34679 -0.26397,-0.62819 -0.58899,-0.62819 -0.32532,0 -0.5893,0.2814 -0.5893,0.62819 v 2.46656 c -1.75996,-3.38461 -4.9625,-4.28996 -8.54895,-3.52026 -0.36225,0.0781 -0.56885,0.48928 -0.42908,0.85428 0.033,0.0856 0.82673,2.12498 2.36025,3.91065 1.81489,2.11359 4.06741,3.16307 6.61778,2.41028 v 1.88001 c -3.46102,-2.5635 -9.25605,-1.64318 -11.63674,4.20213 -0.1294,0.31816 0.008,0.6874 0.30639,0.82566 0.29877,0.13826 0.64515,-0.007 0.77485,-0.32597 2.17867,-5.34822 7.38836,-5.78025 10.15145,-3.46041 0.57526,0.51596 1.41419,0.51336 1.9864,0 3.145472,-2.64093 8.587102,-1.49158 10.451741,4.28704 1.002509,3.11232 0.802007,6.36713 -0.938119,9.73384 -0.692143,1.31982 -1.260995,2.41711 -1.73097,3.33093 -3.649319,-0.83802 -4.170258,-1.14447 -5.412332,-1.11584 -0.32532,0.007 -0.58381,0.29311 -0.57679,0.6399 0.006,0.34777 0.27436,0.62396 0.6012,0.6155 0.21363,-0.005 0.45624,0.007 0.712289,0.0403 l -0.353399,3.38331 c -0.036,0.34451 0.196842,0.65519 0.520332,0.69358 0.324709,0.0384 0.614933,-0.21114 0.650944,-0.55467 l 0.3418,-3.27075 c 2.353838,0.57289 3.885832,0.94635 5.711103,1.39139 l -0.168458,1.61325 c -0.03601,0.34484 0.196839,0.65551 0.520329,0.6939 0.324709,0.0384 0.614933,-0.21113 0.650944,-0.55499 l 0.153505,-1.47076 c 0.364077,0.0888 8.727789,2.1253 8.832465,2.151 l -0.455021,4.35503 c -0.03601,0.34484 0.197145,0.65551 0.520329,0.6939 0.325014,0.0384 0.614933,-0.21113 0.650944,-0.55466 l 0.440373,-4.21255 1.143502,0.2788 c 1.417552,0.34484 2.353838,1.74858 2.192094,3.28962 -0.160218,1.53257 -1.372691,2.69103 -2.81893,2.69428 l -6.03154,0.0124 0.214235,-2.0482 c 0.03601,-0.34484 -0.19684,-0.65552 -0.520329,-0.6939 -0.323794,-0.0381 -0.614934,0.20983 -0.650945,0.55466 l -0.228883,2.19004 -5.780684,0.0117 0.201113,-1.92555 c 0.03601,-0.34451 -0.19684,-0.65519 -0.520329,-0.69358 -0.322574,-0.0387 -0.614934,0.20983 -0.650945,0.55467 -0.05005,0.47984 -0.210878,2.01599 -0.215761,2.06707 l -2.76766,0.006 0.350344,-3.35175 c 0.03601,-0.34451 -0.19684,-0.65519 -0.520328,-0.69358 -0.323794,-0.0387 -0.614935,0.20983 -0.650945,0.55467 l -0.365298,3.49326 c -0.0058,0 -0.01007,0 -0.01343,0 -2.93e-4,0 -9.15e-4,0 -0.0012,0 -9.16e-4,0 -0.0018,0 -0.0027,0 0,0 -2.94e-4,0 -6.23e-4,0 -0.0012,0 -0.0018,0 -0.0031,0 -0.03815,0 -0.223085,3.2e-4 -0.975957,0.002 -2.31295,0 -4.29569,-1.68189 -4.85935,-4.00597 -0.57832,-2.37384 0.43427,-5.02453 2.71364,-6.17908 0.29389,-0.149 0.41932,-0.52344 0.27954,-0.83672 -0.13977,-0.31328 -0.49103,-0.44731 -0.78491,-0.29799 -1.14869,0.58102 -2.07552,1.49744 -2.69228,2.61783 -1.19265,-0.63404 -2.55679,-1.63147 -3.28434,-3.10028 -0.94023,-1.90408 -3.65204,-1.18903 -3.6612,0.96067 l -1.84633,-3.57817 c -1.26557,-2.45127 -1.72914,-5.20249 -1.17829,-8.04186 0.0659,-0.33996 -0.13916,-0.67243 -0.45807,-0.7427 -0.31891,-0.0703 -0.63019,0.14834 -0.69611,0.4883 -0.59083,3.04693 -0.14222,6.10784 1.29945,8.902 l 2.51741,4.87749 -1.8448,-0.21926 c -1.06752,-0.12655 -2.02791,0.6913 -2.14662,1.82991 -0.11841,1.13503 0.65063,2.16174 1.71601,2.28829 l 3.05453,0.3624 c -0.75745,0.72286 -1.3672,1.37805 -1.2906,2.41126 0.13245,1.82633 2.28792,2.58725 3.41433,1.18513 0.92714,-1.15651 2.37582,-1.8709 3.84433,-2.25641 0.79835,2.66013 3.14273,4.59154 5.90367,4.59154 0.897835,-0.002 18.052202,-0.0371 19.1365,-0.0394 2.227495,-0.005 4.014007,-1.92881 4.014007,-4.28997 -2.93e-4,-2.00981 -1.285716,-3.72684 -3.12655,-4.17481 z M 32.251483,17.27738 c 3.91818,-0.57028 6.3889,1.42034 7.2141,4.87944 -3.19216,0.9161 -5.70256,-1.77396 -7.2141,-4.87944 z M 61.955991,46.94052 50.38089,44.12131 c 0.334476,-0.65324 0.705572,-1.37414 1.118783,-2.16727 1.091317,2.00396 3.125939,3.35403 5.450786,3.35403 2.991051,0 5.587812,-2.26616 6.173753,-5.38857 0.06378,-0.33995 -0.143738,-0.6708 -0.462649,-0.73847 -0.319827,-0.068 -0.629278,0.15225 -0.69306,0.49221 -0.476078,2.53683 -2.586384,4.37878 -5.018044,4.37878 -2.152726,0 -3.999054,-1.42457 -4.754064,-3.43568 0.979011,-1.9864 1.44807,-4.08535 1.432201,-6.16738 2.956565,-2.69494 7.515011,-0.99515 8.323428,2.98642 0.06928,0.3393 0.381778,0.55466 0.700993,0.48082 0.317996,-0.0735 0.520024,-0.40795 0.450748,-0.74693 -0.299074,-1.475 -1.072395,-2.81596 -2.174698,-3.77564 -2.094438,-1.82211 -5.088235,-2.02771 -7.393856,-0.43365 -0.196229,-1.65099 -0.711064,-3.3716 -1.533519,-4.80495 0.37781,-1.21441 0.578312,-2.53618 0.578312,-3.90219 0,-2.89825 1.693433,-5.85832 4.218172,-5.85832 2.497882,0 4.218171,2.92038 4.218171,5.85832 0,3.07556 1.015023,5.9273 2.784446,7.8252 3.06887,3.28962 2.771932,9.39713 0.106201,12.99482 -0.579228,0.78142 -1.238412,1.40961 -1.951003,1.86766 z m -24.206418,3.15655 c -1.67879,0.43528 -3.37741,1.29087 -4.48917,2.67672 -0.27436,0.34191 -0.75837,0.38192 -1.07881,0.0898 -0.32135,-0.29376 -0.35889,-0.80777 -0.0839,-1.14935 0.513,-0.63925 1.12763,-1.19554 1.78163,-1.64318 0.46387,-0.31979 0.29571,-1.08656 -0.25452,-1.1513 -0.51026,-0.0608 -4.13059,-0.49123 -4.51664,-0.5371 -0.4187,-0.0494 -0.72205,-0.45382 -0.67566,-0.90016 0.0464,-0.44145 0.41718,-0.7697 0.84534,-0.72025 0.002,3.1e-4 0.005,3.1e-4 0.007,6.6e-4 -10e-4,0 -0.002,-3.1e-4 -0.003,-3.1e-4 0.003,3.1e-4 0.007,9.8e-4 0.014,0.002 -3e-4,0 -6.1e-4,0 -0.001,0 0.006,6.7e-4 0.011,9.8e-4 0.0137,0.002 -0.002,-3.1e-4 -0.005,-6.6e-4 -0.009,-10e-4 0.12054,0.0143 0.82459,0.0979 4.08176,0.48505 0.18738,-0.0127 0.75836,0.24594 1.008,-0.29995 0.10925,-0.23943 0.0653,-0.52506 -0.10925,-0.71504 -0.57191,-0.62169 -1.04249,-1.3016 -1.39833,-2.02023 -0.19715,-0.39786 -0.0534,-0.89202 0.31891,-1.10218 h 9.2e-4 c 0.37659,-0.21113 0.83557,-0.0559 1.03302,0.34094 0.86824,1.75379 2.46065,2.92038 3.8309,3.64649 -0.3128,0.94049 -0.42969,1.98541 -0.31586,2.99747 z m 0,0"
   id="path3906" /></svg>